<?xml version="1.0" encoding="iso-8859-1"?>
<!-- Generator: Adobe Illustrator 19.0.0, SVG Export Plug-In . SVG Version: 6.00 Build 0)  -->
<svg version="1.1" id="Layer_1" xmlns="http://www.w3.org/2000/svg" xmlns:xlink="http://www.w3.org/1999/xlink" x="0px" y="0px"
	 viewBox="0 0 504.111 504.111" style="enable-background:new 0 0 504.111 504.111;" xml:space="preserve">
<path style="fill:#AA1A7E;" d="M444.765,338.94c0,91.231-86.284,165.171-192.709,165.171S59.347,430.171,59.347,338.94
	s86.284-100.1,192.709-100.1S444.765,247.71,444.765,338.94z"/>
<path style="fill:#891B62;" d="M444.765,338.94c0,91.231-86.284,165.171-192.709,165.171S59.347,430.171,59.347,338.94
	s86.284-33.367,192.709-33.367S444.765,247.71,444.765,338.94z"/>
<path style="fill:#BF2E9A;" d="M332.132,253.854c0,11.981-35.84,12.509-80.077,12.509c-44.245,0-80.085-0.52-80.085-12.509
	c0-11.973,35.84-21.669,80.085-21.669C296.292,232.176,332.132,241.881,332.132,253.854z"/>
<g>
	<path style="fill:#AA1A7E;" d="M84.057,320.083c11.453-3.568,18.314,16.644,26.183,41.803c7.877,25.151,13.737,45.694,2.292,49.262
		c-11.429,3.584-27.065-13.911-34.942-39.046C69.736,346.943,72.627,323.667,84.057,320.083z"/>
	<circle style="fill:#AA1A7E;" cx="133.595" cy="429.919" r="5.829"/>
	<circle style="fill:#AA1A7E;" cx="159.462" cy="455.755" r="8.35"/>
</g>
<path style="fill:#A9217E;" d="M248.763,251.325c-2.56,0-5.12-0.969-7.073-2.922c-28.412-28.396-44.056-66.166-44.056-106.338
	c0.008-40.157,15.651-77.926,44.056-106.323c47.663-47.648,125.243-47.663,172.938,0c38.92,38.936,38.92,102.274,0,141.202
	c-31.909,31.909-83.834,31.925-115.783,0c-26.317-26.325-26.317-69.136,0-95.445c21.827-21.827,57.352-21.843,79.195-0.016
	c3.907,3.907,3.907,10.248,0,14.155c-3.915,3.907-10.24,3.907-14.163,0c-14.021-14.013-36.848-14.029-50.877,0.016
	c-18.511,18.511-18.511,48.616,0,67.135c24.119,24.119,63.386,24.096,87.465,0c31.122-31.122,31.122-81.755,0-112.892
	c-39.881-39.873-104.779-39.865-144.62,0c-24.615,24.631-38.187,57.368-38.187,92.168c0,34.816,13.556,67.552,38.187,92.168
	c3.907,3.923,3.907,10.24,0,14.163C253.883,250.356,251.323,251.325,248.763,251.325z"/>
<g>
</g>
<g>
</g>
<g>
</g>
<g>
</g>
<g>
</g>
<g>
</g>
<g>
</g>
<g>
</g>
<g>
</g>
<g>
</g>
<g>
</g>
<g>
</g>
<g>
</g>
<g>
</g>
<g>
</g>
</svg>
